<svg width="108" height="40" viewBox="0 0 108 40" fill="none" xmlns="http://www.w3.org/2000/svg">
<mask id="mask0_633_310" style="mask-type:luminance" maskUnits="userSpaceOnUse" x="42" y="0" width="24" height="21">
<path d="M65.3792 0H42.6206V20.6897H65.3792V0Z" fill="white"/>
</mask>
<g mask="url(#mask0_633_310)">
<path fill-rule="evenodd" clip-rule="evenodd" d="M49.5144 0.610839C48.7835 1.10465 48.2535 1.90384 47.9261 3.01004L47.8013 3.48598C47.7851 4.13735 47.8726 4.71888 48.0639 5.22893C48.2551 5.73899 48.5306 6.14833 48.8889 6.45696C49.2471 6.76559 49.6652 7.0466 50.1401 7.29674L50.2228 7.33902C50.2228 8.78467 50.2957 10.5049 50.2228 12.2934C49.9991 12.2218 49.6863 12.1228 49.4772 12.0611C48.8597 11.8775 48.2178 11.6257 47.5501 11.3089C46.8823 10.9906 46.3167 10.6397 45.8483 10.2564C45.3815 9.87143 44.9893 9.33695 44.6716 8.6515C44.354 7.96598 44.1886 7.17977 44.1708 6.29453C44.187 5.02426 44.4674 3.92456 45.0087 2.99704C45.55 2.06953 46.2681 1.35968 47.1611 0.865864C47.649 0.596219 48.1806 0.386675 48.7575 0.240482L48.8597 0.211243C49.0477 0.157638 49.3184 0.0796684 49.8435 0.0406835C50.3702 0.00169851 51.1531 0.00169851 51.5453 0.00169851H51.6474H51.7139H56.2861C56.6848 0.0260641 57.077 0.0569272 57.4579 0.0959119C58.808 0.237233 59.7642 0.527996 60.7594 1.5611C62.304 3.16435 62.5552 5.68051 61.1987 7.63626C60.9264 8.02771 60.7221 8.28274 60.3251 8.57839L59.2537 9.32398C62.9345 9.32398 65.2392 12.0042 65.3786 14.8615V15.404C65.3138 16.7474 64.766 18.094 63.6525 19.1872C62.3899 20.4282 61.184 20.6929 59.4806 20.6897C56.936 20.6865 54.6572 20.6881 52.1109 20.6881L52.1012 20.6865C52.0558 20.6881 51.9829 20.6881 51.8678 20.6881C51.6458 20.6881 51.4221 20.6881 51.2001 20.6849C49.5404 20.6637 48.1984 20.4412 46.6117 19.9604C45.0363 19.4763 43.7056 18.8314 42.6213 18.029L45.1984 12.1374C45.2486 13.1575 45.4106 14.1467 45.6862 15.1084C45.9618 16.07 46.341 16.9634 46.824 17.7918C47.1741 18.3864 47.5939 18.8981 48.1222 19.3432C48.414 19.5852 48.743 19.8191 49.0736 20.0026C49.3135 20.1358 49.4383 20.2219 49.636 19.9864C50.072 19.4666 50.2098 18.7356 50.2211 18.0761V12.2966C50.6295 12.4298 51.0607 12.5776 51.5145 12.7416C52.2569 13.0097 52.8695 13.2761 53.3541 13.5441C54.1207 13.9616 54.688 14.4846 55.0559 15.1116C55.4222 15.7386 55.5681 16.3656 55.4935 16.9927C55.4189 17.6196 55.218 18.2093 54.8938 18.76C54.568 19.3123 54.0883 19.7541 53.4546 20.0887C52.9764 20.3405 52.3913 20.615 51.8468 20.6767C51.8727 20.7027 51.9813 20.6849 52.1029 20.6897C52.5923 20.654 53.1078 20.5549 53.5794 20.4639C54.3638 20.3129 55.1224 20.0676 55.8566 19.7249C56.5908 19.3821 57.2196 18.9647 57.7448 18.4708C58.2699 17.977 58.6832 17.3516 58.9831 16.5898C59.2829 15.8296 59.4077 14.9898 59.3591 14.0704C59.325 13.3183 59.1889 12.6491 58.9458 12.0643C58.7042 11.4795 58.3915 11.0036 58.0073 10.6349C57.6232 10.2678 57.1824 9.93639 56.6815 9.64398C56.1807 9.35157 55.6524 9.12095 55.0932 8.95364C54.534 8.78633 53.9635 8.61088 53.38 8.42736C52.7965 8.24377 52.2293 8.07157 51.6782 7.91405C51.1595 7.7646 50.6733 7.57453 50.2211 7.34226V2.73064C50.2211 1.69592 49.9294 0.968202 49.5777 0.617336C49.5729 0.620585 49.5744 0.618961 49.5777 0.617336C49.568 0.609215 49.5599 0.601093 49.5502 0.59297L49.5112 0.610839L49.5144 0.615712V0.610839ZM51.8241 0.0163179C51.8419 0.0179422 51.521 0.00169851 51.4707 0.00169851C51.4205 0.00169851 51.2973 7.41334e-05 51.1887 0.00169851C51.803 0.0390591 52.4805 0.398046 53.03 0.929216C54.2698 2.12638 54.8063 4.15522 54.6555 6.99791L57.4076 2.3343C55.5616 0.969823 53.7009 0.198248 51.8241 0.0179422V0.0163179Z" fill="#3B3B3B"/>
</g>
<path d="M6.13704 33.9407C6.13704 35.0414 5.23911 35.9586 3.6267 35.9586C2.01428 35.9586 1.06807 35.0607 1.00049 33.7476H1.73428C1.80187 34.7324 2.4198 35.3697 3.61704 35.3697C4.60187 35.3697 5.37428 34.8676 5.37428 34.0373C5.37428 33.3228 4.96876 32.9945 3.98394 32.7918L3.10532 32.618C2.18807 32.4345 1.22256 32.0097 1.22256 30.8028C1.22256 29.6924 2.19773 28.8331 3.57842 28.8331C4.93014 28.8331 5.9729 29.6828 6.05014 31.0055H5.30669C5.25842 30.0883 4.58256 29.4221 3.58807 29.4221C2.52601 29.4221 1.95635 30.069 1.95635 30.7642C1.95635 31.5849 2.65152 31.8359 3.42394 31.9904L4.30256 32.1738C5.47083 32.4152 6.13704 32.898 6.13704 33.9407ZM14.5426 35.2345V35.8621H10.3812V28.9297H14.475V29.5573H11.1053V31.9711H14.1853V32.5986H11.1053V35.2345H14.5426ZM19.5084 35.8621H18.7842V28.9297H21.256C22.7236 28.9297 23.6408 29.6924 23.6408 31.0249C23.6408 32.0676 22.9553 32.8497 21.8642 33.0331L23.8242 35.8621H22.9553L21.0918 33.12H19.5084V35.8621ZM19.5084 29.538V32.5118H21.198C22.2601 32.5118 22.9167 31.9904 22.9167 31.0249C22.9167 30.0593 22.2601 29.538 21.198 29.538H19.5084ZM31.9898 35.2345V35.8621H27.8285V28.9297H31.9222V29.5573H28.5526V31.9711H31.6326V32.5986H28.5526V35.2345H31.9898ZM40.9529 35.8621L36.9073 29.9531V35.8621H36.2315V28.9297H37.0329L41.0398 34.7614V28.9297H41.7253V35.8621H40.9529ZM51.0758 35.8621L50.3516 33.9407H47.1171L46.3834 35.8621H45.6689L48.3627 28.9297H49.1544L51.8385 35.8621H51.0758ZM48.7392 29.7021L47.3392 33.3518H50.1199L48.7392 29.7021ZM65.3591 33.9214C65.3591 35.1573 64.4515 35.8621 63.0901 35.8621H60.6956V28.9297H62.9453C64.2873 28.9297 65.0791 29.5766 65.0791 30.7159C65.0791 31.4014 64.6446 31.9904 63.9398 32.2511C64.8763 32.4828 65.3591 33.0911 65.3591 33.9214ZM62.9067 29.5186H61.3715V31.9904H62.9067C63.8432 31.9904 64.3742 31.5269 64.3742 30.7545C64.3742 29.9821 63.8432 29.5186 62.9067 29.5186ZM63.0515 32.5793H61.3715V35.2731H63.0515C64.0653 35.2731 64.6639 34.7711 64.6639 33.9021C64.6639 33.0718 64.0653 32.5793 63.0515 32.5793ZM70.3411 35.8621H69.617V28.9297H72.0887C73.5563 28.9297 74.4735 29.6924 74.4735 31.0249C74.4735 32.0676 73.788 32.8497 72.697 33.0331L74.657 35.8621H73.788L71.9246 33.12H70.3411V35.8621ZM70.3411 29.538V32.5118H72.0308C73.0929 32.5118 73.7494 31.9904 73.7494 31.0249C73.7494 30.0593 73.0929 29.538 72.0308 29.538H70.3411ZM83.4053 35.8621L82.6811 33.9407H79.4467L78.7129 35.8621H77.9984L80.6922 28.9297H81.4839L84.168 35.8621H83.4053ZM81.0687 29.7021L79.6687 33.3518H82.4494L81.0687 29.7021ZM88.8349 35.8621H88.1108V28.9297H88.8349V35.8621ZM95.2687 35.8621H93.2991V28.9297H95.2687C97.4894 28.9297 98.7156 30.3393 98.7156 32.3669C98.7156 34.3655 97.4411 35.8621 95.2687 35.8621ZM94.0232 29.5573V35.2345H95.2494C97.0067 35.2345 97.9818 34.0855 97.9818 32.3669C97.9818 30.658 97.026 29.5573 95.2494 29.5573H94.0232ZM106.938 35.2345V35.8621H102.777V28.9297H106.871V29.5573H103.501V31.9711H106.581V32.5986H103.501V35.2345H106.938Z" fill="#3B3B3B"/>
</svg>
