<svg width="36" height="35" viewBox="0 0 36 35" fill="none" xmlns="http://www.w3.org/2000/svg">
<path d="M3.41667 25.3531L3.78126 23.8948H10.3146L9.95001 25.3531H3.41667ZM6.33334 19.8552L6.69792 18.3969H14.6896L14.325 19.8552H6.33334ZM27.5331 29.1944L28.2623 23.3056L29.2904 14.8356L29.6842 11.6754L27.5331 29.1944ZM10.0623 30.625C9.59757 30.625 9.19653 30.4889 8.85917 30.2167C8.52084 29.9444 8.35167 29.5944 8.35167 29.1667H26.6348C26.8973 29.1667 27.1219 29.0826 27.3085 28.9144C27.4952 28.7462 27.607 28.5313 27.644 28.2698L29.5442 12.6846C29.5811 12.4221 29.5063 12.1888 29.3196 11.9846C29.1329 11.7804 28.9083 11.6774 28.6458 11.6754H24.9446L24.4867 15.3635C24.4575 15.5706 24.3642 15.7383 24.2067 15.8667C24.0492 15.995 23.8669 16.0533 23.6598 16.0417C23.4702 16.031 23.3117 15.9483 23.1844 15.7938C23.056 15.6392 23.007 15.4676 23.0371 15.279L23.4775 11.6754H16.1946L15.7367 15.3548C15.7075 15.5619 15.6142 15.731 15.4567 15.8623C15.2992 15.9935 15.1164 16.0533 14.9083 16.0417C14.7197 16.03 14.5598 15.9459 14.4285 15.7894C14.2973 15.6328 14.2467 15.4598 14.2769 15.2702L14.7173 11.6754H10.2315C10.3092 11.1669 10.5644 10.7951 10.9971 10.5598C11.4288 10.3255 11.9027 10.2083 12.419 10.2083H14.8879L14.971 9.47917C15.1655 7.86236 15.7308 6.60722 16.6671 5.71375C17.6033 4.82028 18.8799 4.37403 20.4967 4.375C21.921 4.375 23.0842 4.91459 23.9865 5.99375C24.8887 7.07292 25.2713 8.32806 25.1342 9.75917L25.0788 10.2083H28.8529C29.5043 10.2142 30.0468 10.4611 30.4804 10.9492C30.914 11.4363 31.089 12.005 31.0054 12.6554L29.0702 28.3617C28.9915 29.016 28.7066 29.557 28.2156 29.9848C27.7247 30.4126 27.152 30.626 26.4977 30.625H10.0623ZM16.3463 10.2083H23.6292L23.6846 9.75917C23.7838 8.71403 23.5008 7.79917 22.8358 7.01458C22.1718 6.22708 21.3265 5.83333 20.2998 5.83333C19.1497 5.83333 18.2508 6.15077 17.6033 6.78563C16.9558 7.42049 16.5645 8.31834 16.4294 9.47917L16.3463 10.2083Z" fill="#989898"/>
</svg>
