<svg width="16" height="16" viewBox="0 0 16 16" fill="none" xmlns="http://www.w3.org/2000/svg">
<g clip-path="url(#clip0_2495_5995)">
<mask id="mask0_2495_5995" style="mask-type:luminance" maskUnits="userSpaceOnUse" x="0" y="0" width="16" height="16">
<path d="M8 16C12.4183 16 16 12.4183 16 8C16 3.58172 12.4183 0 8 0C3.58172 0 0 3.58172 0 8C0 12.4183 3.58172 16 8 16Z" fill="white"/>
</mask>
<g mask="url(#mask0_2495_5995)">
<path d="M0 0H16V16H0V0Z" fill="#0052B4"/>
<path d="M7.99998 3.13123L8.25935 3.9281H9.09373L8.4156 4.41873L8.67498 5.21873L7.99685 4.72498L7.31873 5.21873L7.5781 4.41873L6.89998 3.9281H7.73748L7.99998 3.13123ZM4.55623 4.55623L5.30623 4.93748L5.89685 4.34373L5.7656 5.17185L6.51248 5.5531L5.68435 5.68435L5.5531 6.51248L5.17185 5.76248L4.34373 5.89685L4.93748 5.3031L4.55623 4.55623ZM3.13123 7.99998L3.9281 7.7406V6.90623L4.41873 7.58435L5.21873 7.32498L4.72498 8.0031L5.21873 8.68123L4.41873 8.42185L3.9281 9.09998V8.26248L3.13123 7.99998ZM4.55623 11.4437L4.93748 10.6937L4.34373 10.1031L5.17185 10.2344L5.5531 9.48748L5.68435 10.3156L6.51248 10.4469L5.76248 10.8281L5.89685 11.6562L5.3031 11.0625L4.55623 11.4437ZM7.99998 12.8687L7.7406 12.0718H6.90623L7.58435 11.5812L7.32498 10.7812L8.0031 11.275L8.68123 10.7812L8.42185 11.5812L9.09998 12.0718H8.26248L7.99998 12.8687ZM11.4437 11.4437L10.6937 11.0625L10.1031 11.6562L10.2344 10.8281L9.48748 10.4469L10.3156 10.3156L10.4469 9.48748L10.8281 10.2375L11.6562 10.1031L11.0625 10.6969L11.4437 11.4437ZM12.8687 7.99998L12.0718 8.25935V9.09373L11.5812 8.4156L10.7812 8.67498L11.275 7.99685L10.7812 7.31873L11.5812 7.5781L12.0718 6.89998V7.73748L12.8687 7.99998ZM11.4437 4.55623L11.0625 5.30623L11.6562 5.89685L10.8281 5.7656L10.4469 6.51248L10.3156 5.68435L9.48748 5.5531L10.2375 5.17185L10.1031 4.34373L10.6969 4.93748L11.4437 4.55623Z" fill="#FFDA44"/>
</g>
</g>
<defs>
<clipPath id="clip0_2495_5995">
<rect width="16" height="16" fill="white"/>
</clipPath>
</defs>
</svg>
