<svg width="35" height="35" viewBox="0 0 35 35" fill="none" xmlns="http://www.w3.org/2000/svg">
<path d="M24.7917 29.1666C26.4025 29.1666 27.7084 27.8608 27.7084 26.25C27.7084 24.6391 26.4025 23.3333 24.7917 23.3333C23.1809 23.3333 21.875 24.6391 21.875 26.25C21.875 27.8608 23.1809 29.1666 24.7917 29.1666Z" stroke="#989898" stroke-width="1.5" stroke-linecap="round" stroke-linejoin="round"/>
<path d="M10.2084 29.1666C11.8192 29.1666 13.125 27.8608 13.125 26.25C13.125 24.6391 11.8192 23.3333 10.2084 23.3333C8.59752 23.3333 7.29169 24.6391 7.29169 26.25C7.29169 27.8608 8.59752 29.1666 10.2084 29.1666Z" stroke="#989898" stroke-width="1.5" stroke-linecap="round" stroke-linejoin="round"/>
<path d="M7.29169 26.2091C5.6919 26.1304 4.69585 25.8927 3.98419 25.1825C3.27252 24.4723 3.03627 23.4748 2.95752 21.875M13.125 26.25H21.875M27.7084 26.2091C29.3081 26.1304 30.3042 25.8927 31.0159 25.1825C32.0834 24.1135 32.0834 22.3956 32.0834 18.9583V16.0416H25.2292C24.1427 16.0416 23.6002 16.0416 23.1613 15.8987C22.7236 15.7565 22.3257 15.5127 22.0003 15.1872C21.6748 14.8618 21.431 14.4639 21.2888 14.0262C21.1459 13.5873 21.1459 13.0448 21.1459 11.9583C21.1459 10.3294 21.1459 9.5156 20.9315 8.85644C20.7181 8.19986 20.3524 7.60309 19.8642 7.11493C19.3761 6.62676 18.7793 6.26105 18.1227 6.04769C17.4636 5.83331 16.6498 5.83331 15.0209 5.83331H2.91669M2.91669 11.6666H11.6667M2.91669 16.0416H8.75002" stroke="#989898" stroke-width="1.5" stroke-linecap="round" stroke-linejoin="round"/>
<path d="M21.1458 8.75H23.8015C25.9248 8.75 26.985 8.75 27.8483 9.26625C28.7131 9.78104 29.2163 10.7158 30.2225 12.5854L32.0833 16.0417" stroke="#989898" stroke-width="1.5" stroke-linecap="round" stroke-linejoin="round"/>
</svg>
