<svg width="36" height="35" viewBox="0 0 36 35" fill="none" xmlns="http://www.w3.org/2000/svg">
<path d="M3.41667 14.5833C3.41667 10.4591 3.41667 8.39561 4.69855 7.11519C5.97896 5.83331 8.0425 5.83331 12.1667 5.83331H23.8333C27.9575 5.83331 30.021 5.83331 31.3015 7.11519C32.5833 8.39561 32.5833 10.4591 32.5833 14.5833V20.4166C32.5833 24.5408 32.5833 26.6044 31.3015 27.8848C30.021 29.1666 27.9575 29.1666 23.8333 29.1666H12.1667C8.0425 29.1666 5.97896 29.1666 4.69855 27.8848C3.41667 26.6044 3.41667 24.5408 3.41667 20.4166V14.5833Z" stroke="#989898" stroke-width="1.5" stroke-linecap="round" stroke-linejoin="round"/>
<path d="M18 18.9583C18 14.5687 9.25 7.81665 9.25 14.4433C9.25 16.7271 10.3627 18.9583 12.8958 18.9583H18ZM18 18.9583C18 14.5687 26.75 7.81665 26.75 14.4433C26.75 16.7271 25.6373 18.9583 23.1042 18.9583H18ZM18 18.9583L22.375 23.3333M18 18.9583L13.625 23.3333M18 5.83331V29.1666M3.41667 18.9583H32.5833" stroke="#989898" stroke-width="1.5" stroke-linecap="round" stroke-linejoin="round"/>
</svg>
