<svg width="108" height="40" viewBox="0 0 108 40" fill="none" xmlns="http://www.w3.org/2000/svg">
<mask id="mask0_2232_7030" style="mask-type:luminance" maskUnits="userSpaceOnUse" x="42" y="0" width="24" height="21">
<path d="M65.1727 0H42.4141V20.6897H65.1727V0Z" fill="white"/>
</mask>
<g mask="url(#mask0_2232_7030)">
<path fill-rule="evenodd" clip-rule="evenodd" d="M49.3072 0.610839C48.5762 1.10465 48.0463 1.90384 47.7188 3.01004L47.5941 3.48598C47.5779 4.13735 47.6654 4.71888 47.8566 5.22893C48.0479 5.73899 48.3234 6.14833 48.6816 6.45696C49.0398 6.76559 49.4579 7.0466 49.9328 7.29674L50.0155 7.33902C50.0155 8.78467 50.0884 10.5049 50.0155 12.2934C49.7918 12.2218 49.479 12.1228 49.2699 12.0611C48.6524 11.8775 48.0105 11.6257 47.3428 11.3089C46.675 10.9906 46.1094 10.6397 45.641 10.2564C45.1742 9.87143 44.782 9.33695 44.4643 8.6515C44.1467 7.96598 43.9813 7.17977 43.9635 6.29453C43.9797 5.02426 44.2601 3.92456 44.8014 2.99704C45.3428 2.06953 46.0608 1.35968 46.9539 0.865864C47.4417 0.596219 47.9733 0.386675 48.5503 0.240482L48.6524 0.211243C48.8404 0.157638 49.1111 0.0796684 49.6362 0.0406835C50.163 0.00169851 50.9458 0.00169851 51.3381 0.00169851H51.4401H51.5066H56.0788C56.4775 0.0260641 56.8697 0.0569272 57.2506 0.0959119C58.6007 0.237233 59.557 0.527996 60.5521 1.5611C62.0968 3.16435 62.3479 5.68051 60.9914 7.63626C60.7191 8.02771 60.5148 8.28274 60.1178 8.57839L59.0464 9.32398C62.7272 9.32398 65.0319 12.0042 65.1713 14.8615V15.404C65.1065 16.7474 64.5587 18.094 63.4452 19.1872C62.1826 20.4282 60.9768 20.6929 59.2733 20.6897C56.7288 20.6865 54.4499 20.6881 51.9037 20.6881L51.8939 20.6865C51.8485 20.6881 51.7757 20.6881 51.6605 20.6881C51.4385 20.6881 51.2148 20.6881 50.9928 20.6849C49.3331 20.6637 47.9911 20.4412 46.4044 19.9604C44.829 19.4763 43.4983 18.8314 42.4141 18.029L44.9911 12.1374C45.0413 13.1575 45.2034 14.1467 45.479 15.1084C45.7545 16.07 46.1337 16.9634 46.6167 17.7918C46.9668 18.3864 47.3866 18.8981 47.915 19.3432C48.2067 19.5852 48.5357 19.8191 48.8663 20.0026C49.1062 20.1358 49.231 20.2219 49.4288 19.9864C49.8648 19.4666 50.0025 18.7356 50.0139 18.0761V12.2966C50.4223 12.4298 50.8534 12.5776 51.3072 12.7416C52.0496 13.0097 52.6622 13.2761 53.1468 13.5441C53.9134 13.9616 54.4807 14.4846 54.8486 15.1116C55.2149 15.7386 55.3608 16.3656 55.2862 16.9927C55.2117 17.6196 55.0107 18.2093 54.6865 18.76C54.3608 19.3123 53.881 19.7541 53.2473 20.0887C52.7692 20.3405 52.1841 20.615 51.6395 20.6767C51.6654 20.7027 51.774 20.6849 51.8956 20.6897C52.385 20.654 52.9005 20.5549 53.3721 20.4639C54.1565 20.3129 54.9151 20.0676 55.6493 19.7249C56.3835 19.3821 57.0123 18.9647 57.5375 18.4708C58.0626 17.977 58.4759 17.3516 58.7758 16.5898C59.0756 15.8296 59.2004 14.9898 59.1518 14.0704C59.1177 13.3183 58.9816 12.6491 58.7385 12.0643C58.497 11.4795 58.1842 11.0036 57.8001 10.6349C57.4159 10.2678 56.9751 9.93639 56.4743 9.64398C55.9734 9.35157 55.4451 9.12095 54.8859 8.95364C54.3268 8.78633 53.7562 8.61088 53.1728 8.42736C52.5892 8.24377 52.022 8.07157 51.471 7.91405C50.9523 7.7646 50.4661 7.57453 50.0139 7.34226V2.73064C50.0139 1.69592 49.7221 0.968202 49.3704 0.617336C49.3656 0.620585 49.3672 0.618961 49.3704 0.617336C49.3607 0.609215 49.3526 0.601093 49.3429 0.59297L49.3039 0.610839L49.3072 0.615712V0.610839ZM51.6168 0.0163179C51.6346 0.0179422 51.3137 0.00169851 51.2634 0.00169851C51.2132 0.00169851 51.0901 7.41334e-05 50.9814 0.00169851C51.5957 0.0390591 52.2732 0.398046 52.8227 0.929216C54.0625 2.12638 54.599 4.15522 54.4483 6.99791L57.2003 2.3343C55.3543 0.969823 53.4937 0.198248 51.6168 0.0179422V0.0163179Z" fill="#3B3B3B"/>
</g>
<path d="M5.92952 33.9406C5.92952 35.0413 5.03159 35.9585 3.41918 35.9585C1.80676 35.9585 0.860555 35.0606 0.792969 33.7475H1.52676C1.59435 34.7323 2.21228 35.3696 3.40952 35.3696C4.39435 35.3696 5.16676 34.8675 5.16676 34.0371C5.16676 33.3227 4.76124 32.9944 3.77642 32.7916L2.8978 32.6178C1.98055 32.4344 1.01504 32.0096 1.01504 30.8027C1.01504 29.6923 1.99021 28.833 3.3709 28.833C4.72262 28.833 5.76538 29.6827 5.84262 31.0054H5.09918C5.0509 30.0882 4.37504 29.422 3.38055 29.422C2.31849 29.422 1.74883 30.0689 1.74883 30.764C1.74883 31.5847 2.444 31.8358 3.21642 31.9903L4.09504 32.1737C5.26331 32.4151 5.92952 32.8978 5.92952 33.9406ZM14.3351 35.2344V35.862H10.1737V28.9296H14.2675V29.5571H10.8978V31.9709H13.9778V32.5985H10.8978V35.2344H14.3351ZM19.3009 35.862H18.5767V28.9296H21.0484C22.516 28.9296 23.4333 29.6923 23.4333 31.0247C23.4333 32.0675 22.7478 32.8496 21.6567 33.033L23.6167 35.862H22.7478L20.8843 33.1199H19.3009V35.862ZM19.3009 29.5378V32.5116H20.9905C22.0526 32.5116 22.7091 31.9903 22.7091 31.0247C22.7091 30.0592 22.0526 29.5378 20.9905 29.5378H19.3009ZM31.7823 35.2344V35.862H27.6209V28.9296H31.7147V29.5571H28.3451V31.9709H31.4251V32.5985H28.3451V35.2344H31.7823ZM40.7453 35.862L36.6998 29.953V35.862H36.024V28.9296H36.8253L40.8322 34.7613V28.9296H41.5178V35.862H40.7453ZM50.8682 35.862L50.1441 33.9406H46.9096L46.1758 35.862H45.4613L48.1551 28.9296H48.9469L51.631 35.862H50.8682ZM48.5317 29.702L47.1317 33.3516H49.9124L48.5317 29.702ZM65.1516 33.9213C65.1516 35.1571 64.244 35.862 62.8826 35.862H60.4881V28.9296H62.7378C64.0798 28.9296 64.8716 29.5765 64.8716 30.7158C64.8716 31.4013 64.4371 31.9903 63.7322 32.2509C64.6688 32.4827 65.1516 33.0909 65.1516 33.9213ZM62.6991 29.5185H61.164V31.9903H62.6991C63.6357 31.9903 64.1667 31.5268 64.1667 30.7544C64.1667 29.982 63.6357 29.5185 62.6991 29.5185ZM62.844 32.5792H61.164V35.273H62.844C63.8578 35.273 64.4564 34.7709 64.4564 33.902C64.4564 33.0716 63.8578 32.5792 62.844 32.5792ZM70.1336 35.862H69.4095V28.9296H71.8812C73.3488 28.9296 74.266 29.6923 74.266 31.0247C74.266 32.0675 73.5805 32.8496 72.4895 33.033L74.4495 35.862H73.5805L71.7171 33.1199H70.1336V35.862ZM70.1336 29.5378V32.5116H71.8233C72.8853 32.5116 73.5419 31.9903 73.5419 31.0247C73.5419 30.0592 72.8853 29.5378 71.8233 29.5378H70.1336ZM83.1978 35.862L82.4736 33.9406H79.2391L78.5053 35.862H77.7909L80.4847 28.9296H81.2764L83.9605 35.862H83.1978ZM80.8612 29.702L79.4612 33.3516H82.2419L80.8612 29.702ZM88.6274 35.862H87.9033V28.9296H88.6274V35.862ZM95.0612 35.862H93.0915V28.9296H95.0612C97.2819 28.9296 98.5081 30.3392 98.5081 32.3668C98.5081 34.3654 97.2336 35.862 95.0612 35.862ZM93.8157 29.5571V35.2344H95.0419C96.7991 35.2344 97.7743 34.0854 97.7743 32.3668C97.7743 30.6578 96.8184 29.5571 95.0419 29.5571H93.8157ZM106.731 35.2344V35.862H102.569V28.9296H106.663V29.5571H103.294V31.9709H106.374V32.5985H103.294V35.2344H106.731Z" fill="#3B3B3B"/>
</svg>
