<svg width="135" height="50" viewBox="0 0 135 50" fill="none" xmlns="http://www.w3.org/2000/svg">
<mask id="mask0_2517_3658" style="mask-type:luminance" maskUnits="userSpaceOnUse" x="53" y="0" width="29" height="26">
<path d="M81.4655 0H53.0172V25.8621H81.4655V0Z" fill="white"/>
</mask>
<g mask="url(#mask0_2517_3658)">
<path fill-rule="evenodd" clip-rule="evenodd" d="M61.6343 0.763304C60.7206 1.38057 60.0582 2.37956 59.6489 3.7623L59.4929 4.35723C59.4727 5.17145 59.5821 5.89835 59.8211 6.53592C60.0602 7.17349 60.4046 7.68517 60.8523 8.07096C61.3001 8.45675 61.8228 8.80801 62.4164 9.12068L62.5197 9.17353C62.5197 10.9806 62.6109 13.1309 62.5197 15.3665C62.2401 15.2771 61.8491 15.1533 61.5878 15.0761C60.8159 14.8466 60.0135 14.5319 59.1789 14.1359C58.3441 13.738 57.6372 13.2994 57.0516 12.8202C56.4681 12.339 55.9778 11.6709 55.5808 10.8141C55.1837 9.95723 54.977 8.97447 54.9547 7.86791C54.975 6.28009 55.3255 4.90546 56.0022 3.74606C56.6788 2.58666 57.5764 1.69935 58.6927 1.08209C59.3025 0.74503 59.967 0.4831 60.6882 0.300358L60.8159 0.26381C61.0509 0.196803 61.3892 0.0993414 62.0456 0.0506102C62.7041 0.00187899 63.6826 0.00187899 64.1729 0.00187899H64.3005H64.3836H70.0989C70.5972 0.032336 71.0875 0.0709149 71.5636 0.119646C73.2512 0.296297 74.4466 0.659751 75.6905 1.95113C77.6213 3.9552 77.9353 7.1004 76.2396 9.54508C75.8992 10.0344 75.6439 10.3532 75.1476 10.7227L73.8084 11.6547C78.4094 11.6547 81.2903 15.005 81.4645 18.5766V19.2547C81.3835 20.934 80.6987 22.6172 79.3069 23.9837C77.7286 25.535 76.2213 25.8659 74.092 25.8619C70.9113 25.8578 68.0628 25.8599 64.8799 25.8599L64.8678 25.8578C64.811 25.8599 64.7199 25.8599 64.576 25.8599C64.2985 25.8599 64.0189 25.8599 63.7414 25.8559C61.6667 25.8294 59.9892 25.5513 58.0059 24.9502C56.0366 24.3452 54.3733 23.539 53.0179 22.536L56.2392 15.1715C56.302 16.4466 56.5046 17.6832 56.8491 18.8852C57.1935 20.0872 57.6675 21.204 58.2712 22.2396C58.7089 22.9827 59.2336 23.6223 59.8941 24.1787C60.2587 24.4812 60.67 24.7736 61.0833 25.003C61.3831 25.1696 61.5391 25.2771 61.7863 24.9827C62.3313 24.333 62.5035 23.4193 62.5177 22.5949V15.3705C63.0282 15.537 63.5672 15.7218 64.1344 15.9268C65.0623 16.2619 65.8281 16.5948 66.4339 16.9299C67.3922 17.4517 68.1012 18.1055 68.5611 18.8893C69.019 19.673 69.2014 20.4568 69.1081 21.2406C69.0149 22.0243 68.7637 22.7614 68.3585 23.4497C67.9513 24.1401 67.3516 24.6924 66.5595 25.1107C65.9618 25.4253 65.2304 25.7685 64.5497 25.8457C64.5822 25.8782 64.7178 25.8559 64.8698 25.8619C65.4816 25.8172 66.126 25.6934 66.7155 25.5796C67.696 25.3909 68.6442 25.0842 69.562 24.6559C70.4797 24.2274 71.2658 23.7056 71.9222 23.0883C72.5786 22.471 73.0953 21.6893 73.4701 20.737C73.8448 19.7867 74.0009 18.737 73.9401 17.5877C73.8975 16.6477 73.7273 15.8111 73.4235 15.0802C73.1216 14.3491 72.7306 13.7542 72.2504 13.2934C71.7703 12.8345 71.2192 12.4202 70.5932 12.0547C69.9672 11.6892 69.3067 11.4009 68.6078 11.1918C67.9088 10.9827 67.1956 10.7634 66.4663 10.534C65.7369 10.3045 65.0278 10.0892 64.3391 9.89232C63.6907 9.70551 63.0829 9.46792 62.5177 9.17758V3.41306C62.5177 2.11965 62.153 1.21001 61.7134 0.771426C61.7073 0.775487 61.7093 0.773457 61.7134 0.771426C61.7012 0.761274 61.6911 0.751122 61.679 0.740969L61.6303 0.763304L61.6343 0.769396V0.763304ZM64.5214 0.0201532C64.5436 0.0221837 64.1425 0.00187899 64.0797 0.00187899C64.0169 0.00187899 63.8629 -0.000151474 63.7272 0.00187899C64.495 0.0485798 65.3419 0.497313 66.0287 1.16128C67.5785 2.65773 68.2491 5.19378 68.0607 8.74715L71.5008 2.91763C69.1933 1.21203 66.8674 0.247566 64.5214 0.0221837V0.0201532Z" fill="white"/>
</g>
<path d="M7.41298 42.4259C7.41298 43.8017 6.29056 44.9483 4.27505 44.9483C2.25953 44.9483 1.07677 43.8259 0.992287 42.1845H1.90953C1.99401 43.4155 2.76642 44.2121 4.26298 44.2121C5.49401 44.2121 6.45953 43.5845 6.45953 42.5466C6.45953 41.6535 5.95263 41.2431 4.7216 40.9897L3.62332 40.7724C2.47677 40.5431 1.26987 40.0121 1.26987 38.5035C1.26987 37.1155 2.48884 36.0414 4.2147 36.0414C5.90436 36.0414 7.2078 37.1035 7.30436 38.7569H6.37504C6.3147 37.6103 5.46987 36.7776 4.22677 36.7776C2.89918 36.7776 2.18711 37.5862 2.18711 38.4552C2.18711 39.481 3.05608 39.7948 4.0216 39.9879L5.11987 40.2172C6.58022 40.519 7.41298 41.1224 7.41298 42.4259ZM17.9199 44.0431V44.8276H12.7182V36.1621H17.8354V36.9466H13.6234V39.9638H17.4734V40.7483H13.6234V44.0431H17.9199ZM24.1272 44.8276H23.222V36.1621H26.3116C28.1461 36.1621 29.2927 37.1155 29.2927 38.781C29.2927 40.0845 28.4358 41.0621 27.072 41.2914L29.522 44.8276H28.4358L26.1065 41.4H24.1272V44.8276ZM24.1272 36.9224V40.6397H26.2392C27.5668 40.6397 28.3875 39.9879 28.3875 38.781C28.3875 37.5741 27.5668 36.9224 26.2392 36.9224H24.1272ZM39.729 44.0431V44.8276H34.5272V36.1621H39.6445V36.9466H35.4324V39.9638H39.2824V40.7483H35.4324V44.0431H39.729ZM50.9328 44.8276L45.8759 37.4414V44.8276H45.031V36.1621H46.0328L51.0414 43.4517V36.1621H51.8983V44.8276H50.9328ZM63.5864 44.8276L62.6812 42.4259H58.6381L57.7209 44.8276H56.8278L60.195 36.1621H61.1847L64.5398 44.8276H63.5864ZM60.6657 37.1276L58.9157 41.6897H62.3916L60.6657 37.1276ZM81.4405 42.4017C81.4405 43.9466 80.306 44.8276 78.6043 44.8276H75.6112V36.1621H78.4233C80.1009 36.1621 81.0905 36.9707 81.0905 38.3948C81.0905 39.2517 80.5474 39.9879 79.6664 40.3138C80.8371 40.6035 81.4405 41.3638 81.4405 42.4017ZM78.375 36.8983H76.456V39.9879H78.375C79.5457 39.9879 80.2095 39.4086 80.2095 38.4431C80.2095 37.4776 79.5457 36.8983 78.375 36.8983ZM78.556 40.7241H76.456V44.0914H78.556C79.8233 44.0914 80.5715 43.4638 80.5715 42.3776C80.5715 41.3397 79.8233 40.7241 78.556 40.7241ZM87.6681 44.8276H86.7629V36.1621H89.8526C91.6871 36.1621 92.8336 37.1155 92.8336 38.781C92.8336 40.0845 91.9767 41.0621 90.6129 41.2914L93.0629 44.8276H91.9767L89.6474 41.4H87.6681V44.8276ZM87.6681 36.9224V40.6397H89.7802C91.1077 40.6397 91.9284 39.9879 91.9284 38.781C91.9284 37.5741 91.1077 36.9224 89.7802 36.9224H87.6681ZM103.998 44.8276L103.093 42.4259H99.05L98.1328 44.8276H97.2396L100.607 36.1621H101.597L104.952 44.8276H103.998ZM101.078 37.1276L99.3276 41.6897H102.803L101.078 37.1276ZM110.785 44.8276H109.88V36.1621H110.785V44.8276ZM118.828 44.8276H116.366V36.1621H118.828C121.603 36.1621 123.136 37.9241 123.136 40.4586C123.136 42.9569 121.543 44.8276 118.828 44.8276ZM117.271 36.9466V44.0431H118.803C121 44.0431 122.219 42.6069 122.219 40.4586C122.219 38.3224 121.024 36.9466 118.803 36.9466H117.271ZM133.415 44.0431V44.8276H128.213V36.1621H133.33V36.9466H129.118V39.9638H132.968V40.7483H129.118V44.0431H133.415Z" fill="white"/>
</svg>
