<svg width="35" height="35" viewBox="0 0 35 35" fill="none" xmlns="http://www.w3.org/2000/svg">
<path d="M17.8354 9.5594C17.8074 9.49364 17.7607 9.43756 17.701 9.39814C17.6414 9.35872 17.5715 9.33771 17.5 9.33771C17.4285 9.33771 17.3586 9.35872 17.299 9.39814C17.2393 9.43756 17.1926 9.49364 17.1646 9.5594L16.4281 11.3269C16.4024 11.3886 16.3603 11.442 16.3063 11.4814C16.2522 11.5207 16.1885 11.5445 16.1219 11.55L14.2129 11.7032C14.1411 11.7088 14.0726 11.7357 14.016 11.7803C13.9594 11.8248 13.9173 11.8852 13.895 11.9537C13.8727 12.0222 13.8712 12.0957 13.8907 12.1651C13.9101 12.2344 13.9497 12.2965 14.0044 12.3434L15.4583 13.5888C15.5091 13.6325 15.5469 13.6894 15.5675 13.7532C15.5881 13.817 15.5907 13.8853 15.575 13.9504L15.1317 15.8113C15.1146 15.8815 15.1187 15.9552 15.1436 16.0231C15.1685 16.0909 15.213 16.1498 15.2715 16.1924C15.3299 16.2349 15.3997 16.259 15.4719 16.2618C15.5441 16.2646 15.6155 16.2458 15.6771 16.2079L17.3104 15.2104C17.3675 15.1757 17.4331 15.1573 17.5 15.1573C17.5669 15.1573 17.6325 15.1757 17.6896 15.2104L19.3229 16.2079C19.3844 16.2458 19.4559 16.2646 19.5281 16.2618C19.6003 16.259 19.6701 16.2349 19.7285 16.1924C19.787 16.1498 19.8315 16.0909 19.8564 16.0231C19.8813 15.9552 19.8854 15.8815 19.8683 15.8113L19.4235 13.9504C19.4078 13.8853 19.4104 13.817 19.431 13.7532C19.4516 13.6894 19.4894 13.6325 19.5402 13.5888L20.9956 12.3434C21.0508 12.2966 21.0908 12.2344 21.1106 12.1649C21.1303 12.0953 21.1289 12.0214 21.1066 11.9526C21.0842 11.8838 21.0419 11.8232 20.985 11.7785C20.9281 11.7338 20.8592 11.7071 20.7871 11.7017L18.8796 11.55C18.8127 11.5447 18.7486 11.5211 18.6943 11.4817C18.6401 11.4424 18.5977 11.3888 18.5719 11.3269L17.8354 9.5594Z" fill="#989898"/>
<path d="M12.6933 5.10419C12.4192 5.10419 12.2165 5.10419 12.0356 5.12606C11.3298 5.2139 10.6805 5.55661 10.2097 6.08972C9.73885 6.62284 9.47907 7.30961 9.47918 8.02085H7.96251C7.64605 8.0194 7.0773 8.01648 6.61355 8.32565C6.03897 8.70773 5.83334 9.38294 5.83334 10.2084C5.83334 14.0846 7.96834 16.6396 10.6211 18.0454C10.9929 18.7046 11.4392 19.3186 11.9394 19.8669C13.4079 21.4711 15.4175 22.6042 17.5 22.6042C20.2927 22.6042 23.0008 20.7331 24.4388 18.0425C27.0929 16.6323 29.1667 14.0729 29.1667 10.2084C29.1667 9.38294 28.9611 8.70773 28.3865 8.32565C27.9227 8.01648 27.354 8.0194 27.0361 8.0194L26.9792 8.02085H25.5208C25.521 7.30983 25.2614 6.62324 24.7909 6.09016C24.3204 5.55708 23.6714 5.21423 22.9658 5.12606C22.7836 5.10419 22.5808 5.10419 22.3067 5.10419H12.6933ZM10.9375 8.75294V8.75002L10.939 8.36794C10.939 8.02523 10.939 7.91877 10.9506 7.84148C10.9903 7.51927 11.1364 7.21952 11.3657 6.98971C11.5949 6.75989 11.8944 6.61315 12.2165 6.57273C12.2952 6.56398 12.4002 6.56252 12.7415 6.56252H22.26C22.6027 6.56252 22.7077 6.56398 22.785 6.57419C23.1072 6.61386 23.407 6.75991 23.6368 6.9892C23.8666 7.21849 24.0133 7.51791 24.0538 7.84002C24.0625 7.91877 24.064 8.02523 24.064 8.36502L24.0465 13.8513V13.8542C24.0422 15.0233 23.7624 16.1749 23.2298 17.2156C22.0427 19.549 19.7356 21.1459 17.5015 21.1459C15.9411 21.1459 14.2946 20.2811 13.0186 18.8825C12.5377 18.3571 12.1251 17.773 11.7906 17.1442C11.2423 16.1102 10.9229 14.9742 10.9215 13.8542L10.9375 8.75294ZM26.9792 9.47919C27.1717 9.47919 27.3044 9.47919 27.4181 9.49523C27.4739 9.49942 27.5284 9.51427 27.5786 9.53898C27.5786 9.53898 27.6019 9.55065 27.6325 9.6294C27.669 9.72273 27.7083 9.89773 27.7083 10.2084C27.7083 12.6481 26.7458 14.4477 25.305 15.699L25.5179 9.47919H26.9792ZM9.46168 13.8542C9.46362 14.4589 9.53411 15.0549 9.67314 15.6421C8.2498 14.3894 7.29168 12.6088 7.29168 10.2084C7.29168 9.89773 7.33105 9.72273 7.36751 9.6294C7.39668 9.55065 7.42293 9.53898 7.42293 9.53898C7.47266 9.51445 7.52661 9.49961 7.58189 9.49523C7.69564 9.48065 7.82834 9.47919 8.02084 9.47919H9.47626L9.46168 13.8513V13.8542ZM18.2292 24.7917C18.2292 24.5983 18.1524 24.4128 18.0156 24.2761C17.8789 24.1393 17.6934 24.0625 17.5 24.0625C17.3066 24.0625 17.1212 24.1393 16.9844 24.2761C16.8477 24.4128 16.7708 24.5983 16.7708 24.7917V28.4375H11.6667C11.4733 28.4375 11.2878 28.5143 11.1511 28.6511C11.0143 28.7878 10.9375 28.9733 10.9375 29.1667C10.9375 29.3601 11.0143 29.5455 11.1511 29.6823C11.2878 29.819 11.4733 29.8959 11.6667 29.8959H23.3333C23.5267 29.8959 23.7122 29.819 23.8489 29.6823C23.9857 29.5455 24.0625 29.3601 24.0625 29.1667C24.0625 28.9733 23.9857 28.7878 23.8489 28.6511C23.7122 28.5143 23.5267 28.4375 23.3333 28.4375H18.2292V24.7917Z" fill="#989898"/>
</svg>
