<svg width="86" height="46" viewBox="0 0 86 46" fill="none" xmlns="http://www.w3.org/2000/svg">
<g filter="url(#filter0_dd_859_2021)">
<rect x="9" y="5" width="68.1194" height="28" rx="5.01493" fill="#F5F5F5"/>
<rect x="8.89552" y="4.89552" width="68.3284" height="28.209" rx="5.1194" stroke="#D6DCE5" stroke-width="0.208955"/>
<path d="M39.914 20.7215V18.6302C39.914 17.8293 39.4245 17.3065 38.5903 17.3065C38.1676 17.3065 37.7226 17.4511 37.4 17.8961C37.1553 17.5179 36.8105 17.3065 36.2877 17.3065C35.9429 17.3065 35.5869 17.4067 35.3088 17.796V17.3733H34.5858V20.7215H35.3199V18.875C35.3199 18.2854 35.6314 18.0073 36.1208 18.0073C36.6103 18.0073 36.855 18.3188 36.855 18.875V20.7215H37.5891V18.875C37.5891 18.2854 37.934 18.0073 38.39 18.0073C38.8795 18.0073 39.1242 18.3188 39.1242 18.875V20.7215H39.914ZM50.7594 17.3733H49.5692V16.361H48.835V17.3733H48.1676V18.0407H48.835V19.5757C48.835 20.3433 49.1465 20.7993 49.9808 20.7993C50.2922 20.7993 50.6482 20.6992 50.8818 20.5546L50.6704 19.9317C50.4591 20.0763 50.2144 20.1097 50.0475 20.1097C49.7027 20.1097 49.5581 19.8983 49.5581 19.5535V18.0518H50.7483V17.3733H50.7594ZM56.9552 17.3065C56.5325 17.3065 56.2544 17.5179 56.0876 17.796V17.3733H55.3534V20.7215H56.0876V18.8416C56.0876 18.2854 56.3323 17.974 56.7884 17.974C56.933 17.974 57.0998 18.0073 57.2444 18.0407L57.4558 17.3399C57.3112 17.3065 57.0998 17.3065 56.9552 17.3065ZM47.5781 17.6514C47.2333 17.4067 46.7438 17.3065 46.221 17.3065C45.3867 17.3065 44.8306 17.7292 44.8306 18.3855C44.8306 18.9417 45.2533 19.2532 45.9763 19.3644L46.3211 19.3978C46.6993 19.4645 46.9107 19.5757 46.9107 19.7426C46.9107 19.9873 46.6326 20.1653 46.1431 20.1653C45.6537 20.1653 45.2755 19.9873 45.0308 19.8205L44.686 20.3766C45.0642 20.6547 45.587 20.7993 46.1098 20.7993C47.0886 20.7993 47.6448 20.3433 47.6448 19.7204C47.6448 19.1308 47.1888 18.8193 46.4991 18.7081L46.1543 18.6747C45.8428 18.6414 45.5981 18.5746 45.5981 18.3633C45.5981 18.1186 45.8428 17.9851 46.221 17.9851C46.6437 17.9851 47.0553 18.1631 47.2666 18.2632L47.5781 17.6514ZM67.0332 17.3065C66.6105 17.3065 66.3324 17.5179 66.1655 17.796V17.3733H65.4314V20.7215H66.1655V18.8416C66.1655 18.2854 66.4102 17.974 66.8663 17.974C67.0109 17.974 67.1778 18.0073 67.3224 18.0407L67.5337 17.3399C67.378 17.3065 67.1666 17.3065 67.0332 17.3065ZM57.6894 19.0418C57.6894 20.0541 58.3902 20.7882 59.4692 20.7882C59.9586 20.7882 60.3034 20.6881 60.6594 20.41L60.3145 19.8205C60.0364 20.0318 59.7584 20.1319 59.4469 20.1319C58.8574 20.1319 58.4347 19.7092 58.4347 19.0529C58.4347 18.43 58.8574 18.0073 59.4469 17.974C59.7584 17.974 60.0364 18.0741 60.3145 18.2854L60.6594 17.6959C60.3145 17.4178 59.9586 17.3177 59.4692 17.3177C58.3902 17.3065 57.6894 18.0407 57.6894 19.0418ZM64.4525 17.3733H63.7183V17.796C63.4736 17.4845 63.1288 17.3065 62.6727 17.3065C61.7272 17.3065 61.0042 18.0407 61.0042 19.0529C61.0042 20.0652 61.7384 20.7993 62.6727 20.7993C63.1622 20.7993 63.507 20.6214 63.7183 20.3099V20.7326H64.4525V17.3733ZM61.7717 19.0418C61.7717 18.4523 62.1499 17.9628 62.784 17.9628C63.3735 17.9628 63.7962 18.4189 63.7962 19.0418C63.7962 19.6314 63.3735 20.1208 62.784 20.1208C62.1499 20.0874 61.7717 19.6425 61.7717 19.0418ZM53.0175 17.3065C52.0386 17.3065 51.349 18.0073 51.349 19.0529C51.349 20.0986 52.0497 20.7993 53.062 20.7993C53.5514 20.7993 54.0409 20.6547 54.4191 20.3433L54.0742 19.8205C53.7961 20.0318 53.4513 20.1653 53.0954 20.1653C52.6393 20.1653 52.1944 19.9539 52.0831 19.3644H54.5525V19.0863C54.5859 17.9962 53.963 17.3065 53.0175 17.3065ZM53.0175 17.9295C53.4736 17.9295 53.785 18.2075 53.8518 18.7304H52.1054C52.1832 18.2854 52.4947 17.9295 53.0175 17.9295ZM71.1822 16.0496H70.4481V17.796C70.2034 17.4845 69.8585 17.3065 69.4025 17.3065C68.457 17.3065 67.7339 18.0407 67.7339 19.0529C67.7339 20.0652 68.4681 20.7993 69.4025 20.7993C69.8919 20.7993 70.2367 20.6214 70.4481 20.3099V20.7326H71.1822V16.0496ZM68.4903 19.0418C68.4903 18.4523 68.8685 17.9628 69.5026 17.9628C70.0921 17.9628 70.5148 18.4189 70.5148 19.0418C70.5148 19.6314 70.0921 20.1208 69.5026 20.1208C68.8797 20.0874 68.4903 19.6425 68.4903 19.0418ZM44.0297 17.3733H43.2955V17.796C43.0508 17.4845 42.706 17.3065 42.2499 17.3065C41.3044 17.3065 40.5814 18.0407 40.5814 19.0529C40.5814 20.0652 41.3155 20.7993 42.2499 20.7993C42.7393 20.7993 43.0842 20.6214 43.2955 20.3099V20.7326H44.0297V17.3733ZM41.3155 19.0418C41.3155 18.4523 41.6937 17.9628 42.3278 17.9628C42.9173 17.9628 43.34 18.4189 43.34 19.0418C43.34 19.6314 42.9173 20.1208 42.3278 20.1208C41.6937 20.0874 41.3155 19.6425 41.3155 19.0418Z" fill="#000008"/>
<path d="M25.3741 15.0563H20.986V22.9388H25.3741V15.0563Z" fill="#FF5F00"/>
<path d="M21.2617 18.9998C21.2617 17.3993 22.013 15.9766 23.1689 15.0563C22.3198 14.3894 21.2483 13.9849 20.0746 13.9849C17.3048 13.9849 15.0597 16.2256 15.0597 18.9998C15.0597 21.7696 17.3004 24.0147 20.0746 24.0147C21.2439 24.0147 22.3153 23.6101 23.1689 22.9433C22.013 22.0363 21.2617 20.6003 21.2617 18.9998Z" fill="#EB001B"/>
<path d="M31.2915 18.9998C31.2915 21.7696 29.0508 24.0147 26.2766 24.0147C25.1073 24.0147 24.0359 23.6101 23.1823 22.9433C24.3515 22.023 25.0895 20.6047 25.0895 18.9998C25.0895 17.3993 24.3382 15.9766 23.1823 15.0563C24.0314 14.3894 25.1029 13.9849 26.2766 13.9849C29.0508 13.9849 31.2915 16.2389 31.2915 18.9998Z" fill="#F79E1B"/>
</g>
<defs>
<filter id="filter0_dd_859_2021" x="0.432837" y="0.611911" width="85.2537" height="45.1344" filterUnits="userSpaceOnUse" color-interpolation-filters="sRGB">
<feFlood flood-opacity="0" result="BackgroundImageFix"/>
<feColorMatrix in="SourceAlpha" type="matrix" values="0 0 0 0 0 0 0 0 0 0 0 0 0 0 0 0 0 0 127 0" result="hardAlpha"/>
<feOffset dy="0.41791"/>
<feGaussianBlur stdDeviation="2.08955"/>
<feColorMatrix type="matrix" values="0 0 0 0 0.717647 0 0 0 0 0.717647 0 0 0 0 0.717647 0 0 0 0.08 0"/>
<feBlend mode="normal" in2="BackgroundImageFix" result="effect1_dropShadow_859_2021"/>
<feColorMatrix in="SourceAlpha" type="matrix" values="0 0 0 0 0 0 0 0 0 0 0 0 0 0 0 0 0 0 127 0" result="hardAlpha"/>
<feOffset dy="4.1791"/>
<feGaussianBlur stdDeviation="4.1791"/>
<feColorMatrix type="matrix" values="0 0 0 0 0.717647 0 0 0 0 0.717647 0 0 0 0 0.717647 0 0 0 0.08 0"/>
<feBlend mode="normal" in2="effect1_dropShadow_859_2021" result="effect2_dropShadow_859_2021"/>
<feBlend mode="normal" in="SourceGraphic" in2="effect2_dropShadow_859_2021" result="shape"/>
</filter>
</defs>
</svg>
