<svg width="36" height="35" viewBox="0 0 36 35" fill="none" xmlns="http://www.w3.org/2000/svg">
<path d="M32.5833 13.125V10.2084C32.5833 9.43481 32.276 8.69294 31.7291 8.14596C31.1821 7.59898 30.4402 7.29169 29.6667 7.29169H6.33333C5.55978 7.29169 4.81792 7.59898 4.27094 8.14596C3.72396 8.69294 3.41667 9.43481 3.41667 10.2084V24.7917C3.41667 25.5652 3.72396 26.3071 4.27094 26.8541C4.81792 27.4011 5.55978 27.7084 6.33333 27.7084H18M32.5833 13.125H9.25M32.5833 13.125V16.0417" stroke="#989898" stroke-width="1.5" stroke-linecap="round" stroke-linejoin="round"/>
<path d="M28.1967 20.599L31.9242 21.5454C32.3121 21.6446 32.5848 21.9975 32.5731 22.3971C32.3223 30.7942 27.4792 32.0833 27.4792 32.0833C27.4792 32.0833 22.636 30.7942 22.3852 22.3971C22.3812 22.2027 22.4432 22.0127 22.5611 21.858C22.6789 21.7034 22.8457 21.5932 23.0342 21.5454L26.7617 20.599C27.2327 20.4794 27.7256 20.4794 28.1967 20.599Z" stroke="#989898" stroke-width="1.5" stroke-linecap="round" stroke-linejoin="round"/>
</svg>
