<svg width="85" height="67" viewBox="0 0 85 67" fill="none" xmlns="http://www.w3.org/2000/svg">
<path d="M85.0007 90.4262H1.83398L14.8059 17.9325H68.8186L85.0007 90.4262Z" fill="#8B865C"/>
<path d="M50.0111 84.2607C50.006 84.2607 50.0009 84.2601 49.9958 84.2589C49.9605 84.2504 49.9387 84.2147 49.9471 84.179C50.0962 83.5479 64.8529 21.0629 64.7094 20.0679C64.7042 20.0321 64.7282 19.9977 64.7635 19.9918C64.7993 19.9859 64.8322 20.0086 64.8387 20.0442C65.0085 20.976 50.6847 81.6283 50.075 84.2098C50.0678 84.2402 50.0408 84.2607 50.0111 84.2607Z" fill="#F7F1EB"/>
<path d="M81.2227 87.4405C81.2117 87.4405 81.2006 87.4377 81.1904 87.4318L67.2032 79.4194C67.1827 79.4076 67.1699 79.3855 67.1699 79.3616V21.7482C67.1699 21.7116 67.1993 21.6819 67.2356 21.6819C67.272 21.6819 67.3014 21.7116 67.3014 21.7482V79.323L81.2552 87.3165C81.2867 87.3346 81.2978 87.3751 81.2799 87.4069C81.2679 87.4284 81.2457 87.4405 81.2227 87.4405Z" fill="#F7F1EB"/>
<path d="M55.3248 22.5112C54.8028 22.5112 54.3798 22.0842 54.3798 21.5573V7.75816C54.3798 4.53216 51.7796 1.9077 48.5832 1.9077H37.1164C33.9202 1.9077 31.3199 4.53209 31.3199 7.75816V21.5573C31.3199 22.0842 30.8968 22.5112 30.3748 22.5112C29.8528 22.5112 29.4297 22.0842 29.4297 21.5573V7.75816C29.4297 3.48027 32.878 0 37.1164 0H48.5831C52.8216 0 56.2698 3.48027 56.2698 7.75816V21.5573C56.2699 22.0842 55.8469 22.5112 55.3248 22.5112Z" fill="#776E42"/>
<path d="M26.1967 30.2008L17.6523 65.8994L40.494 71.4686L49.0383 35.77L40.0724 22.729L26.1967 30.2008ZM36.1067 30.2694C36.38 29.1279 37.5184 28.426 38.6494 28.7018C39.7804 28.9775 40.4758 30.1265 40.2025 31.268C39.9293 32.4095 38.791 33.1116 37.6599 32.8358C36.529 32.56 35.8335 31.4109 36.1067 30.2694Z" fill="#EFBC73"/>
<path d="M36.8269 66.1397C36.8043 66.1397 36.7822 66.1279 36.7701 66.1068L26.591 48.497C26.5727 48.4654 26.5833 48.4248 26.6146 48.4063C26.6459 48.3878 26.6862 48.3985 26.7044 48.4301L36.8835 66.04C36.9018 66.0716 36.8913 66.1122 36.8599 66.1307C36.8496 66.1369 36.8381 66.1397 36.8269 66.1397Z" fill="#363E44"/>
<path d="M36.8616 56.6056C36.6422 56.6056 36.4215 56.5792 36.2029 56.5259C34.7107 56.1621 33.79 54.6408 34.1504 53.1348C34.325 52.4052 34.7707 51.788 35.4052 51.3967C36.0398 51.0055 36.7875 50.8871 37.5102 51.0633C39.0024 51.4271 39.923 52.9484 39.5626 54.4544C39.388 55.184 38.9424 55.8012 38.3078 56.1925C37.8651 56.4654 37.3675 56.6056 36.8616 56.6056ZM36.8516 51.1164C36.3696 51.1164 35.8955 51.25 35.4737 51.51C34.8691 51.8828 34.4445 52.4709 34.2781 53.166C33.9347 54.601 34.8119 56.0503 36.2336 56.397C36.9226 56.565 37.6347 56.4521 38.2392 56.0793C38.8438 55.7065 39.2685 55.1184 39.4348 54.4233C39.7783 52.9884 38.901 51.539 37.4794 51.1923C37.271 51.1415 37.0606 51.1164 36.8516 51.1164Z" fill="#363E44"/>
<path d="M26.4873 63.4796C26.2715 63.4796 26.0525 63.4541 25.8337 63.4008C24.3415 63.037 23.4208 61.5157 23.7813 60.0097C23.9558 59.2801 24.4015 58.6628 25.0361 58.2716C25.6707 57.8803 26.4182 57.7619 27.141 57.9382C28.6332 58.302 29.5539 59.8233 29.1934 61.3293C28.8859 62.6144 27.7431 63.4796 26.4873 63.4796ZM26.4825 57.9912C26.0005 57.9912 25.5264 58.1248 25.1047 58.3848C24.5001 58.7576 24.0754 59.3457 23.9091 60.0408C23.5656 61.4758 24.4429 62.9251 25.8645 63.2718C27.2865 63.6186 28.7222 62.733 29.0658 61.2981C29.4092 59.8632 28.532 58.4138 27.1103 58.0671C26.902 58.0164 26.6915 57.9912 26.4825 57.9912Z" fill="#363E44"/>
<path d="M16.4618 20.9807L0 53.7328L20.9564 64.4627L37.4182 31.7105L31.6695 16.9357L16.4618 20.9807ZM26.0897 23.3513C26.6161 22.304 27.884 21.8857 28.9217 22.417C29.9594 22.9483 30.3738 24.228 29.8474 25.2753C29.3211 26.3226 28.0531 26.7411 27.0154 26.2098C25.9778 25.6785 25.5633 24.3986 26.0897 23.3513Z" fill="#FFD092"/>
<path d="M18.7586 51.0578C17.2934 51.0578 15.847 50.6999 14.532 49.9956C10.3325 47.7466 8.83584 42.5745 11.1246 38.2209C12.2149 36.147 14.0417 34.6267 16.2685 33.94C18.4955 33.2532 20.8554 33.4824 22.9143 34.5849C24.9732 35.6875 26.4843 37.5317 27.1692 39.7778C27.8542 42.0239 27.631 44.403 26.5407 46.4769C25.4571 48.5382 23.5909 50.0378 21.2861 50.6995C20.4519 50.9392 19.6021 51.0578 18.7586 51.0578ZM18.8289 33.6843C17.9847 33.6843 17.1367 33.8111 16.3069 34.0669C14.1138 34.7433 12.3145 36.2406 11.2408 38.2831C8.98655 42.571 10.4593 47.6643 14.5937 49.8784C16.6354 50.9719 18.9994 51.2181 21.2502 50.572C23.5203 49.9201 25.3579 48.4438 26.4246 46.4147C27.4984 44.3723 27.7182 42.0291 27.0436 39.8169C26.369 37.6046 24.8806 35.7881 22.8527 34.7021C21.592 34.027 20.2162 33.6843 18.8289 33.6843Z" fill="white"/>
<path d="M12.0283 46.5301C12.0066 46.5301 11.9854 46.5192 11.9728 46.4994C11.3025 45.4389 11.0906 44.3319 10.9788 42.9963C10.9757 42.9598 11.0025 42.9277 11.0387 42.9246C11.0754 42.9215 11.1067 42.9486 11.1097 42.985C11.22 44.3012 11.4277 45.3904 12.0836 46.428C12.1031 46.4589 12.0942 46.4999 12.0635 46.5196C12.0527 46.5267 12.0404 46.5301 12.0283 46.5301Z" fill="white"/>
<path d="M26.4211 44.3223C26.4159 44.3223 26.4106 44.3216 26.4052 44.3203C26.37 44.3115 26.3486 44.2755 26.3573 44.2399C27.2163 40.7549 25.6138 37.1413 22.4602 35.4525C18.7945 33.4894 14.2725 34.7669 12.1652 38.3612C12.1469 38.3927 12.1065 38.4032 12.0753 38.3845C12.044 38.3658 12.0337 38.3251 12.0521 38.2936C14.195 34.6383 18.7938 33.3387 22.5218 35.3353C25.7288 37.0527 27.3585 40.7276 26.4849 44.2719C26.4774 44.3021 26.4506 44.3223 26.4211 44.3223Z" fill="white"/>
<path d="M25.1854 45.7503C27.0429 42.216 25.7041 37.828 22.1952 35.9494C18.6863 34.0708 14.336 35.413 12.4785 38.9473C10.621 42.4816 11.9598 46.8696 15.4687 48.7482C18.9776 50.6268 23.3279 49.2846 25.1854 45.7503Z" fill="white"/>
<path d="M18.7021 44.934C18.877 44.6528 18.9269 44.3474 18.852 44.018C18.7769 43.6886 18.5596 43.2998 18.1999 42.8516C17.6861 42.2574 17.3679 41.6967 17.2453 41.1697C17.1226 40.6427 17.2283 40.1107 17.5625 39.5735C17.8867 39.0521 18.2993 38.7211 18.8001 38.5803C19.301 38.4395 19.8324 38.5009 20.3944 38.7645L21.0459 37.717L21.7894 38.1882L21.1349 39.2403C21.6148 39.6501 21.8823 40.1357 21.9377 40.6971C21.993 41.2586 21.8232 41.8568 21.4281 42.4919L20.5059 41.9076C20.7731 41.4779 20.8905 41.0677 20.858 40.677C20.8254 40.2864 20.6334 39.9797 20.2822 39.7571C19.912 39.5226 19.5747 39.4444 19.2703 39.5224C18.966 39.6005 18.7086 39.8086 18.4983 40.1466C18.3077 40.4531 18.2482 40.7612 18.3201 41.0711C18.392 41.3809 18.6227 41.7781 19.0122 42.2629C19.5256 42.8789 19.8408 43.4409 19.9577 43.9489C20.0747 44.4569 19.9671 44.9779 19.635 45.5119C19.297 46.0554 18.8666 46.3851 18.3441 46.501C17.8215 46.617 17.2593 46.5261 16.6572 46.2284L16.0912 47.1384L15.3525 46.6704L15.9155 45.7652C15.4113 45.3664 15.0923 44.8879 14.9586 44.3296C14.8247 43.7712 14.9685 43.1674 15.3899 42.5182L15.414 42.5005L16.3081 43.067C16.0054 43.5536 15.9113 43.9775 16.0257 44.3384C16.14 44.6994 16.3745 44.9922 16.7291 45.2168C17.1337 45.4732 17.5101 45.5763 17.8586 45.5261C18.2066 45.4757 18.4878 45.2784 18.7021 44.934Z" fill="#D87355"/>
<path d="M38.4678 32.58C38.4327 32.58 38.4036 32.5519 38.4023 32.5162C38.4009 32.482 38.2663 29.0587 37.6297 25.2656C36.7889 20.2566 35.4591 16.8805 33.7841 15.5022C33.0399 14.89 32.213 14.6551 31.3265 14.804C31.2905 14.81 31.2568 14.7856 31.2509 14.7495C31.2449 14.7133 31.2691 14.6792 31.3049 14.6732C32.2306 14.5178 33.0925 14.7621 33.8671 15.3994C35.5917 16.8184 36.9012 20.1309 37.7595 25.2449C38.3974 29.0463 38.5323 32.477 38.5335 32.5112C38.5349 32.5478 38.5066 32.5786 38.4703 32.58C38.4696 32.58 38.4686 32.58 38.4678 32.58Z" fill="#363E44"/>
<path d="M28.3845 26.2733C28.3573 26.2733 28.3318 26.2561 28.3224 26.2286C28.3157 26.2089 27.6446 24.2285 27.4459 21.9305C27.1816 18.8754 27.8691 16.6469 29.434 15.4858C29.4632 15.4641 29.5044 15.4705 29.5259 15.4999C29.5474 15.5295 29.541 15.571 29.5118 15.5927C27.584 17.023 27.3955 19.8224 27.5768 21.9189C27.7742 24.2007 28.44 26.1657 28.4467 26.1853C28.4586 26.2199 28.4403 26.2577 28.406 26.2696C28.3989 26.2721 28.3916 26.2733 28.3845 26.2733Z" fill="#363E44"/>
</svg>
