<svg width="18" height="18" viewBox="0 0 18 18" fill="none" xmlns="http://www.w3.org/2000/svg">
<rect width="18" height="18" rx="9" fill="white"/>
<g clip-path="url(#clip0_2476_1576)">
<path d="M13 2.65C11.825 1.925 10.475 1.5 9 1.5V2.65H13Z" fill="#ED4C5C"/>
<path d="M9 3.80002H14.4C13.975 3.37502 13.5 2.97502 13 2.65002H9V3.80002Z" fill="white"/>
<path d="M9 4.95005H15.325C15.05 4.52505 14.75 4.15005 14.425 3.80005H9V4.95005Z" fill="#ED4C5C"/>
<path d="M9 6.09995H15.925C15.75 5.69995 15.55 5.29995 15.325 4.94995H9V6.09995Z" fill="white"/>
<path d="M9 7.24998H16.3C16.2 6.84998 16.075 6.47498 15.925 6.09998H9V7.24998Z" fill="#ED4C5C"/>
<path d="M9 8.42502H16.475C16.45 8.02502 16.375 7.65002 16.3 7.27502H9V8.42502Z" fill="white"/>
<path d="M16.475 8.42505H9V9.00005H1.5C1.5 9.20005 1.5 9.37505 1.525 9.57505H16.475C16.5 9.37505 16.5 9.20005 16.5 9.00005C16.5 8.80005 16.5 8.60005 16.475 8.42505Z" fill="#ED4C5C"/>
<path d="M1.69999 10.725H16.3C16.4 10.35 16.45 9.97495 16.475 9.57495H1.52499C1.54999 9.94995 1.59999 10.35 1.69999 10.725Z" fill="white"/>
<path d="M2.07501 11.875H15.925C16.075 11.5 16.2 11.125 16.3 10.725H1.70001C1.80001 11.125 1.92501 11.5 2.07501 11.875Z" fill="#ED4C5C"/>
<path d="M2.67501 13.025H15.325C15.55 12.65 15.75 12.275 15.925 11.875H2.07501C2.25001 12.275 2.45001 12.65 2.67501 13.025Z" fill="white"/>
<path d="M3.57499 14.175H14.425C14.75 13.825 15.075 13.425 15.325 13.025H2.67499C2.92499 13.45 3.24999 13.825 3.57499 14.175Z" fill="#ED4C5C"/>
<path d="M4.97501 15.325H13.025C13.55 15 14 14.6 14.425 14.175H3.57501C4.00001 14.625 4.47501 15 4.97501 15.325Z" fill="white"/>
<path d="M9.00001 16.5C10.475 16.5 11.85 16.075 13.025 15.325H4.97501C6.15001 16.075 7.52501 16.5 9.00001 16.5Z" fill="#ED4C5C"/>
<path d="M5 2.65C4.475 2.975 4 3.375 3.575 3.8C3.225 4.15 2.925 4.55 2.675 4.95C2.45 5.325 2.225 5.7 2.075 6.1C1.925 6.475 1.8 6.85 1.7 7.25C1.6 7.625 1.55 8 1.525 8.4C1.5 8.6 1.5 8.8 1.5 9H9V1.5C7.525 1.5 6.175 1.925 5 2.65Z" fill="#428BC1"/>
<path d="M7.25001 1.75L7.37501 2.125H7.75001L7.45001 2.375L7.55001 2.75L7.25001 2.525L6.95001 2.75L7.05001 2.375L6.75001 2.125H7.12501L7.25001 1.75ZM8.25001 3.25L8.37501 3.625H8.75001L8.45001 3.875L8.55001 4.25L8.25001 4.025L7.95001 4.25L8.05001 3.875L7.75001 3.625H8.12501L8.25001 3.25ZM6.25001 3.25L6.37501 3.625H6.75001L6.45001 3.875L6.55001 4.25L6.25001 4.025L5.95001 4.25L6.05001 3.875L5.75001 3.625H6.12501L6.25001 3.25ZM7.25001 4.75L7.37501 5.125H7.75001L7.45001 5.375L7.55001 5.75L7.25001 5.525L6.95001 5.75L7.05001 5.375L6.75001 5.125H7.12501L7.25001 4.75ZM5.25001 4.75L5.37501 5.125H5.75001L5.45001 5.375L5.55001 5.75L5.25001 5.525L4.95001 5.75L5.05001 5.375L4.75001 5.125H5.12501L5.25001 4.75ZM3.25001 4.75L3.37501 5.125H3.75001L3.45001 5.375L3.55001 5.75L3.25001 5.525L2.95001 5.75L3.05001 5.375L2.75001 5.125H3.12501L3.25001 4.75ZM8.25001 6.25L8.37501 6.625H8.75001L8.45001 6.875L8.55001 7.25L8.25001 7.025L7.95001 7.25L8.05001 6.875L7.75001 6.625H8.12501L8.25001 6.25ZM6.25001 6.25L6.37501 6.625H6.75001L6.45001 6.875L6.55001 7.25L6.25001 7.025L5.95001 7.25L6.05001 6.875L5.75001 6.625H6.12501L6.25001 6.25ZM4.25001 6.25L4.37501 6.625H4.75001L4.45001 6.875L4.55001 7.25L4.25001 7.025L3.95001 7.25L4.05001 6.875L3.75001 6.625H4.12501L4.25001 6.25ZM7.25001 7.75L7.37501 8.125H7.75001L7.45001 8.375L7.55001 8.75L7.25001 8.525L6.95001 8.75L7.05001 8.375L6.75001 8.125H7.12501L7.25001 7.75ZM5.25001 7.75L5.37501 8.125H5.75001L5.45001 8.375L5.55001 8.75L5.25001 8.525L4.95001 8.75L5.05001 8.375L4.75001 8.125H5.12501L5.25001 7.75ZM3.25001 7.75L3.37501 8.125H3.75001L3.45001 8.375L3.55001 8.75L3.25001 8.525L2.95001 8.75L3.05001 8.375L2.75001 8.125H3.12501L3.25001 7.75ZM3.95001 4.25L4.25001 4.025L4.55001 4.25L4.42501 3.875L4.72501 3.625H4.35001L4.25001 3.25L4.12501 3.625H3.77501L4.07501 3.85L3.95001 4.25ZM1.95001 7.25L2.25001 7.025L2.55001 7.25L2.42501 6.875L2.72501 6.625H2.37501L2.25001 6.25L2.12501 6.625H1.87501C1.87501 6.65 1.85001 6.675 1.85001 6.7L2.05001 6.85L1.95001 7.25Z" fill="white"/>
</g>
<defs>
<clipPath id="clip0_2476_1576">
<rect width="16" height="16" fill="white" transform="translate(1 1)"/>
</clipPath>
</defs>
</svg>
