<svg width="91" height="47" viewBox="0 0 91 47" fill="none" xmlns="http://www.w3.org/2000/svg">
<g filter="url(#filter0_dd_859_2023)">
<rect x="9.11938" y="5" width="72" height="28" rx="5.30061" fill="#1434CB"/>
<rect x="9.00896" y="4.88957" width="72.2209" height="28.2209" rx="5.41104" stroke="#D6DCE5" stroke-width="0.220859"/>
<path d="M45.0594 14.0242L42.9167 23.7306H40.3257L42.4687 14.0242H45.0594ZM55.9607 20.2917L57.3249 16.6466L58.1098 20.2917H55.9607ZM58.8516 23.7306H61.2483L59.1569 14.0242H56.9448C56.4477 14.0242 56.0283 14.3044 55.8415 14.7364L51.9542 23.7306H54.6752L55.2154 22.2812H58.5397L58.8516 23.7306ZM52.0893 20.5614C52.1004 17.9996 48.4334 17.8586 48.4588 16.7142C48.4664 16.3655 48.8091 15.9956 49.5576 15.9007C49.9294 15.8537 50.9518 15.8178 52.1127 16.3354L52.5674 14.2771C51.9438 14.0577 51.1414 13.8467 50.1434 13.8467C47.5825 13.8467 45.78 15.1662 45.7648 17.0555C45.7486 18.4527 47.0515 19.2324 48.0333 19.6969C49.0427 20.1728 49.3819 20.4776 49.3775 20.9031C49.3708 21.5547 48.5723 21.8416 47.8273 21.853C46.5243 21.8729 45.7682 21.5123 45.1656 21.2401L44.6961 23.3669C45.3013 23.6363 46.4188 23.8704 47.5781 23.8824C50.2997 23.8824 52.0804 22.5792 52.0893 20.5614ZM41.3569 14.0242L37.1589 23.7306H34.4196L32.3539 15.9843C32.2283 15.5072 32.1193 15.3327 31.7379 15.1314C31.1156 14.8043 30.0869 14.4967 29.1818 14.3063L29.2436 14.0242H33.6524C34.2142 14.0242 34.7198 14.3868 34.8472 15.0138L35.9384 20.6309L38.6347 14.0242H41.3569Z" fill="white"/>
</g>
<defs>
<filter id="filter0_dd_859_2023" x="0.0641737" y="0.362119" width="90.1104" height="46.1101" filterUnits="userSpaceOnUse" color-interpolation-filters="sRGB">
<feFlood flood-opacity="0" result="BackgroundImageFix"/>
<feColorMatrix in="SourceAlpha" type="matrix" values="0 0 0 0 0 0 0 0 0 0 0 0 0 0 0 0 0 0 127 0" result="hardAlpha"/>
<feOffset dy="0.441718"/>
<feGaussianBlur stdDeviation="2.20859"/>
<feColorMatrix type="matrix" values="0 0 0 0 0.717647 0 0 0 0 0.717647 0 0 0 0 0.717647 0 0 0 0.08 0"/>
<feBlend mode="normal" in2="BackgroundImageFix" result="effect1_dropShadow_859_2023"/>
<feColorMatrix in="SourceAlpha" type="matrix" values="0 0 0 0 0 0 0 0 0 0 0 0 0 0 0 0 0 0 127 0" result="hardAlpha"/>
<feOffset dy="4.41718"/>
<feGaussianBlur stdDeviation="4.41718"/>
<feColorMatrix type="matrix" values="0 0 0 0 0.717647 0 0 0 0 0.717647 0 0 0 0 0.717647 0 0 0 0.08 0"/>
<feBlend mode="normal" in2="effect1_dropShadow_859_2023" result="effect2_dropShadow_859_2023"/>
<feBlend mode="normal" in="SourceGraphic" in2="effect2_dropShadow_859_2023" result="shape"/>
</filter>
</defs>
</svg>
